<?xml version="1.0" encoding="us-ascii" standalone="no"?><svg xmlns="http://www.w3.org/2000/svg" xmlns:xlink="http://www.w3.org/1999/xlink" contentStyleType="text/css" height="483px" preserveAspectRatio="none" style="width:1837px;height:483px;background:#FFFFFF;" version="1.1" viewBox="0 0 1837 483" width="1837px" zoomAndPan="magnify"><defs/><g><!--cluster web Pjx--><g id="cluster_web Pjx"><path d="M657.5,112.35 L712.5,112.35 A3.75,3.75 0 0 1 715,114.85 L722,135.9594 L1251.5,135.9594 A2.5,2.5 0 0 1 1254,138.4594 L1254,247.07 A2.5,2.5 0 0 1 1251.5,249.57 L657.5,249.57 A2.5,2.5 0 0 1 655,247.07 L655,114.85 A2.5,2.5 0 0 1 657.5,112.35 " fill="none" style="stroke:#000000;stroke-width:1.5;"/><line style="stroke:#000000;stroke-width:1.5;" x1="655" x2="722" y1="135.9594" y2="135.9594"/><text fill="#000000" font-family="sans-serif" font-size="14" font-weight="bold" lengthAdjust="spacing" textLength="54" x="659" y="128.8832">web Pjx</text></g><!--cluster ApolloServer--><g id="cluster_ApolloServer"><path d="M1288.5,113.16 L1389.5,113.16 A3.75,3.75 0 0 1 1392,115.66 L1399,136.7694 L1474.5,136.7694 A2.5,2.5 0 0 1 1477,139.2694 L1477,246.27 A2.5,2.5 0 0 1 1474.5,248.77 L1288.5,248.77 A2.5,2.5 0 0 1 1286,246.27 L1286,115.66 A2.5,2.5 0 0 1 1288.5,113.16 " fill="none" style="stroke:#000000;stroke-width:1.5;"/><line style="stroke:#000000;stroke-width:1.5;" x1="1286" x2="1399" y1="136.7694" y2="136.7694"/><text fill="#000000" font-family="sans-serif" font-size="14" font-weight="bold" lengthAdjust="spacing" textLength="100" x="1290" y="129.6932">Apollo_Server</text></g><!--cluster APIServerNode--><g id="cluster_APIServerNode"><path d="M1519.5,104.35 L1593.5,104.35 A3.75,3.75 0 0 1 1596,106.85 L1603,127.9594 L1827.5,127.9594 A2.5,2.5 0 0 1 1830,130.4594 L1830,255.07 A2.5,2.5 0 0 1 1827.5,257.57 L1519.5,257.57 A2.5,2.5 0 0 1 1517,255.07 L1517,106.85 A2.5,2.5 0 0 1 1519.5,104.35 " fill="none" style="stroke:#000000;stroke-width:1.5;"/><line style="stroke:#000000;stroke-width:1.5;" x1="1517" x2="1603" y1="127.9594" y2="127.9594"/><text fill="#000000" font-family="sans-serif" font-size="14" font-weight="bold" lengthAdjust="spacing" textLength="73" x="1521" y="120.8832">API server</text></g><!--cluster APIServerDotnet--><g id="cluster_APIServerDotnet"><path d="M149.5,104.35 L223.5,104.35 A3.75,3.75 0 0 1 226,106.85 L233,127.9594 L466.5,127.9594 A2.5,2.5 0 0 1 469,130.4594 L469,255.07 A2.5,2.5 0 0 1 466.5,257.57 L149.5,257.57 A2.5,2.5 0 0 1 147,255.07 L147,106.85 A2.5,2.5 0 0 1 149.5,104.35 " fill="none" style="stroke:#000000;stroke-width:1.5;"/><line style="stroke:#000000;stroke-width:1.5;" x1="147" x2="233" y1="127.9594" y2="127.9594"/><text fill="#000000" font-family="sans-serif" font-size="14" font-weight="bold" lengthAdjust="spacing" textLength="73" x="151" y="120.8832">API server</text></g><!--cluster IdentityServer--><g id="cluster_IdentityServer"><path d="M324.5,323.57 L429.5,323.57 A3.75,3.75 0 0 1 432,326.07 L439,347.1794 L901.5,347.1794 A2.5,2.5 0 0 1 904,349.6794 L904,474.29 A2.5,2.5 0 0 1 901.5,476.79 L324.5,476.79 A2.5,2.5 0 0 1 322,474.29 L322,326.07 A2.5,2.5 0 0 1 324.5,323.57 " fill="none" style="stroke:#000000;stroke-width:1.5;"/><line style="stroke:#000000;stroke-width:1.5;" x1="322" x2="439" y1="347.1794" y2="347.1794"/><text fill="#000000" font-family="sans-serif" font-size="14" font-weight="bold" lengthAdjust="spacing" textLength="104" x="326" y="340.1032">Identity Server</text></g><!--entity WebReactGeneral--><g id="elem_WebReactGeneral"><rect fill="#F1F1F1" height="65.2188" rx="2.5" ry="2.5" style="stroke:#181818;stroke-width:0.5;" width="128" x="947" y="168.35"/><rect fill="#F1F1F1" height="10" style="stroke:#181818;stroke-width:0.5;" width="15" x="1055" y="173.35"/><rect fill="#F1F1F1" height="2" style="stroke:#181818;stroke-width:0.5;" width="4" x="1053" y="175.35"/><rect fill="#F1F1F1" height="2" style="stroke:#181818;stroke-width:0.5;" width="4" x="1053" y="179.35"/><text fill="#000000" font-family="sans-serif" font-size="14" lengthAdjust="spacing" textLength="88" x="962" y="202.8832">pjx-web-react:</text><text fill="#000000" font-family="sans-serif" font-size="14" lengthAdjust="spacing" textLength="83" x="962" y="220.4926">General data</text></g><!--entity WebReactClient--><g id="elem_WebReactClient"><rect fill="#F1F1F1" height="65.2188" rx="2.5" ry="2.5" style="stroke:#181818;stroke-width:0.5;" width="128" x="1110" y="168.35"/><rect fill="#F1F1F1" height="10" style="stroke:#181818;stroke-width:0.5;" width="15" x="1218" y="173.35"/><rect fill="#F1F1F1" height="2" style="stroke:#181818;stroke-width:0.5;" width="4" x="1216" y="175.35"/><rect fill="#F1F1F1" height="2" style="stroke:#181818;stroke-width:0.5;" width="4" x="1216" y="179.35"/><text fill="#000000" font-family="sans-serif" font-size="14" lengthAdjust="spacing" textLength="88" x="1125" y="202.8832">pjx-web-react:</text><text fill="#000000" font-family="sans-serif" font-size="14" lengthAdjust="spacing" textLength="69" x="1125" y="220.4926">ClientPage</text></g><!--entity WebReactLogin--><g id="elem_WebReactLogin"><rect fill="#F1F1F1" height="65.2188" rx="2.5" ry="2.5" style="stroke:#181818;stroke-width:0.5;" width="241" x="670.5" y="168.35"/><rect fill="#F1F1F1" height="10" style="stroke:#181818;stroke-width:0.5;" width="15" x="891.5" y="173.35"/><rect fill="#F1F1F1" height="2" style="stroke:#181818;stroke-width:0.5;" width="4" x="889.5" y="175.35"/><rect fill="#F1F1F1" height="2" style="stroke:#181818;stroke-width:0.5;" width="4" x="889.5" y="179.35"/><text fill="#000000" font-family="sans-serif" font-size="14" lengthAdjust="spacing" textLength="88" x="685.5" y="202.8832">pjx-web-react:</text><text fill="#000000" font-family="sans-serif" font-size="14" lengthAdjust="spacing" textLength="201" x="685.5" y="220.4926">Login,Register,Activation Pages</text></g><!--entity GraphQLAPI--><g id="elem_GraphQLAPI"><rect fill="#F1F1F1" height="47.6094" rx="2.5" ry="2.5" style="stroke:#181818;stroke-width:0.5;" width="124" x="1329" y="177.16"/><rect fill="#F1F1F1" height="10" style="stroke:#181818;stroke-width:0.5;" width="15" x="1433" y="182.16"/><rect fill="#F1F1F1" height="2" style="stroke:#181818;stroke-width:0.5;" width="4" x="1431" y="184.16"/><rect fill="#F1F1F1" height="2" style="stroke:#181818;stroke-width:0.5;" width="4" x="1431" y="188.16"/><text fill="#000000" font-family="sans-serif" font-size="14" lengthAdjust="spacing" textLength="84" x="1344" y="211.6932">GraphQL API</text></g><!--entity RestifyAPI--><g id="elem_RestifyAPI"><rect fill="#F1F1F1" height="65.2188" rx="2.5" ry="2.5" style="stroke:#181818;stroke-width:0.5;" width="122" x="1684" y="168.35"/><rect fill="#F1F1F1" height="10" style="stroke:#181818;stroke-width:0.5;" width="15" x="1786" y="173.35"/><rect fill="#F1F1F1" height="2" style="stroke:#181818;stroke-width:0.5;" width="4" x="1784" y="175.35"/><rect fill="#F1F1F1" height="2" style="stroke:#181818;stroke-width:0.5;" width="4" x="1784" y="179.35"/><text fill="#000000" font-family="sans-serif" font-size="14" lengthAdjust="spacing" textLength="82" x="1699" y="202.8832">pjx-api-node:</text><text fill="#000000" font-family="sans-serif" font-size="14" lengthAdjust="spacing" textLength="68" x="1699" y="220.4926">Restify API</text></g><!--entity DB1--><g id="elem_DB1"><path d="M1560.5,187.66 C1560.5,177.66 1605,177.66 1605,177.66 C1605,177.66 1649.5,177.66 1649.5,187.66 L1649.5,214.2694 C1649.5,224.2694 1605,224.2694 1605,224.2694 C1605,224.2694 1560.5,224.2694 1560.5,214.2694 L1560.5,187.66 " fill="#F1F1F1" style="stroke:#181818;stroke-width:0.5;"/><path d="M1560.5,187.66 C1560.5,197.66 1605,197.66 1605,197.66 C1605,197.66 1649.5,197.66 1649.5,187.66 " fill="none" style="stroke:#181818;stroke-width:0.5;"/><text fill="#000000" font-family="sans-serif" font-size="14" lengthAdjust="spacing" textLength="69" x="1570.5" y="216.1932">Database1</text></g><!--entity DotnetController--><g id="elem_DotnetController"><rect fill="#F1F1F1" height="65.2188" rx="2.5" ry="2.5" style="stroke:#181818;stroke-width:0.5;" width="130" x="315" y="168.35"/><rect fill="#F1F1F1" height="10" style="stroke:#181818;stroke-width:0.5;" width="15" x="425" y="173.35"/><rect fill="#F1F1F1" height="2" style="stroke:#181818;stroke-width:0.5;" width="4" x="423" y="175.35"/><rect fill="#F1F1F1" height="2" style="stroke:#181818;stroke-width:0.5;" width="4" x="423" y="179.35"/><text fill="#000000" font-family="sans-serif" font-size="14" lengthAdjust="spacing" textLength="90" x="330" y="202.8832">pjx-api-dotnet:</text><text fill="#000000" font-family="sans-serif" font-size="14" lengthAdjust="spacing" textLength="59" x="330" y="220.4926">controller</text></g><!--entity DB2--><g id="elem_DB2"><path d="M190.5,187.66 C190.5,177.66 235,177.66 235,177.66 C235,177.66 279.5,177.66 279.5,187.66 L279.5,214.2694 C279.5,224.2694 235,224.2694 235,224.2694 C235,224.2694 190.5,224.2694 190.5,214.2694 L190.5,187.66 " fill="#F1F1F1" style="stroke:#181818;stroke-width:0.5;"/><path d="M190.5,187.66 C190.5,197.66 235,197.66 235,197.66 C235,197.66 279.5,197.66 279.5,187.66 " fill="none" style="stroke:#181818;stroke-width:0.5;"/><text fill="#000000" font-family="sans-serif" font-size="14" lengthAdjust="spacing" textLength="69" x="200.5" y="216.1932">Database2</text></g><!--entity OAuth--><g id="elem_OAuth"><rect fill="#F1F1F1" height="65.2188" rx="2.5" ry="2.5" style="stroke:#181818;stroke-width:0.5;" width="178" x="489" y="387.57"/><rect fill="#F1F1F1" height="10" style="stroke:#181818;stroke-width:0.5;" width="15" x="647" y="392.57"/><rect fill="#F1F1F1" height="2" style="stroke:#181818;stroke-width:0.5;" width="4" x="645" y="394.57"/><rect fill="#F1F1F1" height="2" style="stroke:#181818;stroke-width:0.5;" width="4" x="645" y="398.57"/><text fill="#000000" font-family="sans-serif" font-size="14" lengthAdjust="spacing" textLength="138" x="504" y="422.1032">pjx-sso-identityserver:</text><text fill="#000000" font-family="sans-serif" font-size="14" lengthAdjust="spacing" textLength="119" x="504" y="439.7126">OAuth2.0 endpoint</text></g><!--entity MVC--><g id="elem_MVC"><rect fill="#F1F1F1" height="65.2188" rx="2.5" ry="2.5" style="stroke:#181818;stroke-width:0.5;" width="178" x="702" y="387.57"/><rect fill="#F1F1F1" height="10" style="stroke:#181818;stroke-width:0.5;" width="15" x="860" y="392.57"/><rect fill="#F1F1F1" height="2" style="stroke:#181818;stroke-width:0.5;" width="4" x="858" y="394.57"/><rect fill="#F1F1F1" height="2" style="stroke:#181818;stroke-width:0.5;" width="4" x="858" y="398.57"/><text fill="#000000" font-family="sans-serif" font-size="14" lengthAdjust="spacing" textLength="138" x="717" y="422.1032">pjx-sso-identityserver:</text><text fill="#000000" font-family="sans-serif" font-size="14" lengthAdjust="spacing" textLength="30" x="717" y="439.7126">MVC</text></g><!--entity DB3--><g id="elem_DB3"><path d="M365.5,406.88 C365.5,396.88 410,396.88 410,396.88 C410,396.88 454.5,396.88 454.5,406.88 L454.5,433.4894 C454.5,443.4894 410,443.4894 410,443.4894 C410,443.4894 365.5,443.4894 365.5,433.4894 L365.5,406.88 " fill="#F1F1F1" style="stroke:#181818;stroke-width:0.5;"/><path d="M365.5,406.88 C365.5,416.88 410,416.88 410,416.88 C410,416.88 454.5,416.88 454.5,406.88 " fill="none" style="stroke:#181818;stroke-width:0.5;"/><text fill="#000000" font-family="sans-serif" font-size="14" lengthAdjust="spacing" textLength="69" x="375.5" y="435.4132">Database3</text></g><g id="elem_GMN18"><path d="M1233,6 L1233,32.3516 L1355,32.3516 L1355,16 L1345,6 L1233,6 " fill="#FEFFDD" style="stroke:#181818;stroke-width:0.5;"/><path d="M1345,6 L1345,16 L1355,16 L1345,6 " fill="#FEFFDD" style="stroke:#181818;stroke-width:1.0;"/><text fill="#000000" font-family="sans-serif" font-size="13" lengthAdjust="spacing" textLength="101" x="1239" y="24.4951">pjx-graphql-apollo</text></g><g id="elem_GMN21"><path d="M1479.5,6 L1479.5,32.3516 L1570.5,32.3516 L1570.5,16 L1560.5,6 L1479.5,6 " fill="#FEFFDD" style="stroke:#181818;stroke-width:0.5;"/><path d="M1560.5,6 L1560.5,16 L1570.5,16 L1560.5,6 " fill="#FEFFDD" style="stroke:#181818;stroke-width:1.0;"/><text fill="#000000" font-family="sans-serif" font-size="13" lengthAdjust="spacing" textLength="70" x="1485.5" y="24.4951">pjx-api-node</text></g><g id="elem_GMN24"><path d="M105.5,6 L105.5,32.3516 L204.5,32.3516 L204.5,16 L194.5,6 L105.5,6 " fill="#FEFFDD" style="stroke:#181818;stroke-width:0.5;"/><path d="M194.5,6 L194.5,16 L204.5,16 L194.5,6 " fill="#FEFFDD" style="stroke:#181818;stroke-width:1.0;"/><text fill="#000000" font-family="sans-serif" font-size="13" lengthAdjust="spacing" textLength="78" x="111.5" y="24.4951">pjx-api-dotnet</text></g><g id="elem_GMN27"><path d="M492.5,187.79 L492.5,214.1416 L635.5,214.1416 L635.5,197.79 L625.5,187.79 L492.5,187.79 " fill="#FEFFDD" style="stroke:#181818;stroke-width:0.5;"/><path d="M625.5,187.79 L625.5,197.79 L635.5,197.79 L625.5,187.79 " fill="#FEFFDD" style="stroke:#181818;stroke-width:1.0;"/><text fill="#000000" font-family="sans-serif" font-size="13" lengthAdjust="spacing" textLength="122" x="498.5" y="206.2851">pjx-sso-identityserver</text></g><g id="elem_GMN30"><path d="M940,6 L940,32.3516 A0,0 0 0 0 940,32.3516 L987.48,32.3516 L1007.27,168.06 L995.48,32.3516 L1040,32.3516 A0,0 0 0 0 1040,32.3516 L1040,16 L1030,6 L940,6 A0,0 0 0 0 940,6 " fill="#FEFFDD" style="stroke:#181818;stroke-width:0.5;"/><path d="M1030,6 L1030,16 L1040,16 L1030,6 " fill="#FEFFDD" style="stroke:#181818;stroke-width:0.5;"/><text fill="#000000" font-family="sans-serif" font-size="13" lengthAdjust="spacing" textLength="79" x="946" y="24.4951">React js Web</text></g><g id="elem_GMN33"><path d="M6,187.79 L6,214.1416 L120,214.1416 L120,197.79 L110,187.79 L6,187.79 " fill="#FEFFDD" style="stroke:#181818;stroke-width:0.5;"/><path d="M110,187.79 L110,197.79 L120,197.79 L110,187.79 " fill="#FEFFDD" style="stroke:#181818;stroke-width:1.0;"/><text fill="#000000" font-family="sans-serif" font-size="13" lengthAdjust="spacing" textLength="93" x="12" y="206.2851">restricted pages</text></g><!--link GMN18 to ApolloServer--><g id="link_GMN18_ApolloServer"><path d="M1294,32.82 C1294,42.89 1294,58.1263 1294,75.3761 C1294,84.001 1294,93.1293 1294,102.367 C1294,104.6764 1294,106.9926 1294,109.3095 C1294,110.468 1294,111.6266 1294,112.7847 " fill="none" id="GMN18-ApolloServer" style="stroke:#181818;stroke-width:1.0;stroke-dasharray:7.0,7.0;"/></g><!--link GMN21 to APIServerNode--><g id="link_GMN21_APIServerNode"><path d="M1525,32.82 C1525,42.89 1525,58.1263 1525,75.3761 C1525,84.001 1525,93.1293 1525,102.367 C1525,102.9443 1525,103.5221 1525,104.1002 " fill="none" id="GMN21-APIServerNode" style="stroke:#181818;stroke-width:1.0;stroke-dasharray:7.0,7.0;"/></g><!--link GMN24 to APIServerDotnet--><g id="link_GMN24_APIServerDotnet"><path d="M155,32.82 C155,42.89 155,58.1263 155,75.3761 C155,84.001 155,93.1293 155,102.367 C155,102.9443 155,103.5221 155,104.1002 " fill="none" id="GMN24-APIServerDotnet" style="stroke:#181818;stroke-width:1.0;stroke-dasharray:7.0,7.0;"/></g><!--link GMN27 to IdentityServer--><g id="link_GMN27_IdentityServer"><path d="M563.82,214.36 C562.77,235.77 557.2,279.32 530,299.57 C513.94,311.53 365.06,294.39 350,307.57 C345.3338,311.6538 341.513,316.4223 338.4003,321.6454 C338.2057,321.9719 338.0139,322.3001 337.8249,322.63 C337.7304,322.795 337.6365,322.9604 337.5434,323.1262 " fill="none" id="GMN27-IdentityServer" style="stroke:#181818;stroke-width:1.0;stroke-dasharray:7.0,7.0;"/></g><!--link GMN33 to WebReactClient--><g id="link_GMN33_WebReactClient"><path d="M67.05,187.7 C76.82,158.29 104.82,88.05 156.5,60.35 C201.5,36.23 1030.21,36.78 1075.5,60.35 C1118.73,82.85 1146.92,133.96 1161.64,167.97 " fill="none" id="GMN33-WebReactClient" style="stroke:#181818;stroke-width:1.0;stroke-dasharray:7.0,7.0;"/></g><!--link WebReactGeneral to GraphQLAPI--><g id="link_WebReactGeneral_GraphQLAPI"><path d="M1024.94,167.89 C1038.01,141.61 1060.31,106.67 1092,90.62 C1138.19,67.23 1279.96,65.08 1325,90.62 C1355.27,107.79 1373.15,144.97 1382.51,171.42 " fill="none" id="WebReactGeneral-to-GraphQLAPI" style="stroke:#181818;stroke-width:1.0;"/><polygon fill="#181818" points="1384.37,175.89,1385.2478,166.0803,1382.7546,171.1581,1377.6768,168.665,1384.37,175.89" style="stroke:#181818;stroke-width:1.0;"/><text fill="#000000" font-family="sans-serif" font-size="13" lengthAdjust="spacing" textLength="88" x="1149" y="76.8451">GraphQL query</text></g><!--link GraphQLAPI to RestifyAPI--><g id="link_GraphQLAPI_RestifyAPI"><path d="M1407.71,176.94 C1428.05,150.03 1465.17,107.92 1509,90.62 C1574.32,64.84 1604.64,58.34 1667,90.62 C1696.08,105.67 1716.63,137.11 1729.32,162.59 " fill="none" id="GraphQLAPI-to-RestifyAPI" style="stroke:#181818;stroke-width:1.0;"/><polygon fill="#181818" points="1731.9,166.93,1731.5659,157.0868,1729.7155,162.4325,1724.3698,160.582,1731.9,166.93" style="stroke:#181818;stroke-width:1.0;"/><text fill="#000000" font-family="sans-serif" font-size="13" lengthAdjust="spacing" textLength="72" x="1580" y="76.8451">request data</text></g><!--link WebReactClient to DotnetController--><g id="link_WebReactClient_DotnetController"><path d="M1160.06,167.89 C1146.99,141.61 1124.69,106.67 1093,90.62 C1031.74,59.6 537.42,62 475,90.62 C442.69,105.44 417.21,137.27 400.81,162.96 " fill="none" id="WebReactClient-to-DotnetController" style="stroke:#181818;stroke-width:1.0;"/><polygon fill="#181818" points="397.65,167,405.812,161.488,400.3,162.76,399.028,157.248,397.65,167" style="stroke:#181818;stroke-width:1.0;"/><text fill="#000000" font-family="sans-serif" font-size="13" lengthAdjust="spacing" textLength="95" x="1014.5" y="76.8451">OpenID Connect</text></g><!--link DotnetController to OAuth--><g id="link_DotnetController_OAuth"><path d="M409.22,234.01 C445.51,273.83 507.27,341.59 545.17,383.16 " fill="none" id="DotnetController-to-OAuth" style="stroke:#181818;stroke-width:1.0;"/><polygon fill="#181818" points="547.99,386.35,544.8669,377.0094,544.6153,382.6607,538.964,382.409,547.99,386.35" style="stroke:#181818;stroke-width:1.0;"/><text fill="#000000" font-family="sans-serif" font-size="13" lengthAdjust="spacing" textLength="53" x="468" y="296.0651">authorize</text></g><!--link WebReactLogin to MVC--><g id="link_WebReactLogin_MVC"><path d="M791,234.01 C791,273.27 791,339.68 791,381.38 " fill="none" id="WebReactLogin-to-MVC" style="stroke:#181818;stroke-width:1.0;"/><polygon fill="#181818" points="791,386.35,795,377.35,791,381.35,787,377.35,791,386.35" style="stroke:#181818;stroke-width:1.0;"/><text fill="#000000" font-family="sans-serif" font-size="13" lengthAdjust="spacing" textLength="43" x="792" y="296.0651">redirect</text></g><!--SRC=[ZLHDRzim3BtxLn0-ryMQtdeea2L0OQ1RtHJeBWC6nMOSPPwaokn7Eko_Z_g8OxjkqPCjyZq-aY9bHFbRr0ZfCwwXsBsay3S1AFKVenKgWjJiNZBsPHP5IHS_rHKgjAA1If18GRJm0zShvukEZzcBHhAzOCK1DvW_fbxhMggJ5TQo9RGdyvBaao2f5RXmxI2UnoR_aiGSofiRtJJwrntQ9xGU6op1C2xwoWgplRs6UP5xR3ppSHYqoA7jHIpo4Ewxhd2gZyB8JB6FgrbXItApxnJYsIc0x-rQjAomZ7zd7hJyUlOf_QKcXVHU1fNtSWwbLcIv2P4UM8lEE9d8B2Oo6oIILwmWQG-z_XviqnrsoRIjpcH4XJ8ugPlv8srdfry0LMMqLEI3UUid8toxNtWEVoTBE8ybdBiIb2O4qWRqPZWH5-04QdVn3mttpRc6wC5j1_ZXWgU1yLgEq70J0_2eQm7xjim1PxI1JF97sFc52D06DzJ7XerZgEN1ix8ahC2uFKgISRZCodfBsMLl2vZNxSZ38zfzclIS7U4ur8vWaQ4jXPVZA1CpwKZZCNJK6uCgNm8R5PQK9cymtCfdnMG_9uuX-AkjVCMUadyLZa8y7o6jIbeVzJy0]--></g></svg>